<svg id="Layer_1" data-name="Layer 1" xmlns="http://www.w3.org/2000/svg" viewBox="0 0 417 417">
	<defs>
		<style>
			.cls-1{fill:#fff;}
      .cls-2{fill:#808080;} /* Convertido a gris */
      .cls-3{fill:#d3d3d3;} /* Convertido a un gris claro */
		</style>
	</defs>
	<title>logo_manitoba_small_gray</title>
	<rect class="cls-1" width="417" height="417"/>
	<path class="cls-2" d="M3.87,179.93c4-7.54,4-16.1,6.18-24.12q24-88.08,104.47-131c16.43-8.79,34-14.66,52.13-18.7,4.07-.9,6.14-.69,6,4.46-.29,17.32-.26,34.65-.09,52,0,3.48-1.14,5-4.38,5.81-7.67,2-15.17,4.51-22.08,8.58a11.5,11.5,0,0,0-2,.58A143.16,143.16,0,0,0,81.42,137c-8.07,14.33-14,29.55-15.93,46.11h0a17,17,0,0,0-1,3c-2.73,20-2,39.88,3.37,59.39,23.79,86.87,119.31,131.38,201.2,93.86,60.85-27.87,95-94.62,81.63-160.23-4-19.92-11.43-38.52-24-54.77a.62.62,0,0,0-.38-.7c-13.16-18.82-29.71-33.77-50.41-44l.05.1L274.59,79c-8.84-5.33-18.53-8.62-28.39-11.27-3.37-.9-4.52-2.16-4.49-5.68q.25-26.51,0-53.08c0-3.63.91-4.51,4.49-3.78,63.84,13.14,112,47.95,143.36,105,20.63,37.49,27.68,78,22.85,120.39C402.9,314,342.71,383.1,261,404.82c-108.33,28.89-220.89-36-250.22-144.27A235.41,235.41,0,0,1,5,230.44c-.14-1,.18-2.19-1.09-2.74Z"/>
	<path class="cls-3" d="M149.07,215.56h0c-6.54,0-13.09.13-19.62-.05-3.2-.08-4.71.39-4.48,4.28,1,16.63,3.29,33,8,49,.84,2.78,2,3.53,4.73,3.5,11.31-.12,22.63-.23,33.94.05,4.11.1,4.63-1.5,4.22-5a425.13,425.13,0,0,1-3-48.11c0-3.2-1.42-3.83-4.21-3.78C162.15,215.63,155.62,215.56,149.07,215.56Zm-23.19,56.73a215.74,215.74,0,0,1-9-52.39c-.19-3.61-1.5-4.4-4.73-4.37-12.37.13-24.74.18-37.07,0-3.81-.06-4.79,1.2-4.56,4.9a126.58,126.58,0,0,0,13.14,48.69c.84,1.78,1.77,3.24,4.22,3.23,12.52-.12,25-.06,38-.06Zm59.82,10.64a236.46,236.46,0,0,0,8.37,38.22c2.15,6.91,4.52,13.8,8.85,19.73,3.44,4.71,6.09,4.77,9.59.26a30.3,30.3,0,0,0,3.57-5.9c7.63-16.54,10.71-34.29,13.71-52.06.38-2.25-.6-2.78-2.57-2.77H188c-1.77,0-2.7.62-2.24,2.52Zm93.47-2.47h-38.4c-2.75,0-2.36,2.15-2.62,3.74-3.19,19.83-7,39.5-16.77,58.63C252.21,332,267.28,308.38,279.17,280.46Zm-84.69,62c-9.76-19-13.48-38.54-16.45-58.26-.45-3-1.69-3.8-4.44-3.78-10.77.1-21.56.18-32.32,0-4.12-.07-3.79,1.47-2.53,4.37,4.95,11.79,11.1,22.86,19.38,32.66C167.61,328.72,178.75,337.91,194.48,342.42Zm-104.38-62c19.81,29.8,45.88,48.64,79.53,58.84-4.81-4.47-9.13-8.09-13-12.14-11.72-12.33-20.17-26.72-26.39-42.48-.71-1.79-.74-4.28-3.82-4.22C114.78,280.51,103.12,280.44,90.1,280.44Zm235.81,0H289.08c-2.08,0-2.3,1.75-2.94,3.21-2.35,5.33-4.59,10.71-7.25,15.88A128,128,0,0,1,248.56,338c32.42-9.56,58-28.26,77.35-57.53Z"/>
	<path class="cls-2" d="M233.12,257.41c-1.48,3.87-.93,8-1.68,12-.41,2.17-1.11,2.9-3.37,2.88q-20.16-.07-40.32.14c-2.81,0-3.57-1.11-3.85-3.64a443.85,443.85,0,0,1-3-49.71c0-2.89,1.26-3.56,3.83-3.55q22.81.09,45.62,0c3.21,0,4.28,1,4.11,4.31-.58,11.12-.85,22.24-1.19,33.36C233.27,254.6,233.2,256,233.12,257.41Z"/>
	<path class="cls-2" d="M156.8,140.8c5.13-2.24,9.54-6,15.32-7.33,1.08,1.17.64,2.62.65,3.93,0,21.75,0,43.48.15,65.23,0,3.88-1,5.11-5,5-12.9-.28-25.81-.24-38.72,0-3.54.07-4.67-1.12-4.33-4.36l.08-1.05c1.93-15.88,6.3-30.93,14.94-44.54A123.61,123.61,0,0,1,156.8,140.8Z"/>
	<path class="cls-2" d="M288.5,185.22c.47,6.15,2.2,12.12,2.39,18.33.08,2.81-.08,4.12-3.37,4.08-13.41-.18-26.84-.15-40.26-.07-2.53,0-3.85-.37-3.83-3.37.12-23.13.09-46.27.12-69.39,0-.32.27-.64.6-1.4,11.07,3.87,20.06,10.58,27.75,19.31,6.5,7.41,10.47,16.22,14.41,25.07.05.37.12.72.18,1.08.38,1.91.67,3.84,1.86,5.46A.94.94,0,0,0,288.5,185.22Z"/>
	<path class="cls-2" d="M241.72,246.81c1.78-8.88.94-17.92,1.6-26.87.25-3.47,1.2-4.48,4.63-4.43,12.89.16,25.79.13,38.68,0,3.22,0,4.4,1,4.31,4.21a203.53,203.53,0,0,1-7.92,49.5c-.67,2.38-2.09,3.18-4.6,3.15q-17.49-.19-35,0c-3.05,0-3.8-.71-3.37-3.91.8-6.45,2.07-12.92,1.55-19.49Z"/>
	<path class="cls-2" d="M345.86,217.07c-1.3,17.78-5.17,34.87-13.1,50.95-1.47,3-3,4.49-6.74,4.37-10.61-.33-21.24-.25-31.84-.05-3.62.06-4.07-1-3.11-4.26A200.53,200.53,0,0,0,299,219c.1-2.38.66-3.53,3.27-3.49,14.49.19,29,.27,43.49.4Z"/>
	<path class="cls-3" d="M274.61,79l1.38.84Z"/>
	<path class="cls-2" d="M149.07,215.56c6.55,0,13.08.08,19.63,0,2.76-.05,4.15.58,4.21,3.79a429.83,429.83,0,0,0,3,48.11c.42,3.44-.1,5.05-4.21,4.94-11.32-.28-22.63-.17-33.95,0-2.7,0-3.9-.72-4.72-3.51-4.75-16-7-32.37-8-49-.23-3.88,1.28-4.35,4.47-4.27,6.54.18,13.09.05,19.62.05Z"/>
	<path class="cls-2" d="M125.88,272.29c-13,0-25.49-.06-38,0-2.46,0-3.37-1.44-4.22-3.23A126.58,126.58,0,0,1,70.5,220.42c-.23-3.71.75-5,4.56-4.91,12.36.2,24.73.15,37.07,0,3.23,0,4.54.76,4.74,4.38A215.34,215.34,0,0,0,125.88,272.29Z"/>
	<path class="cls-2" d="M185.71,282.93c-.46-1.9.47-2.53,2.24-2.53h39.27c2,0,2.95.52,2.57,2.77-3,17.77-6.08,35.52-13.71,52.06a30,30,0,0,1-3.57,5.9c-3.5,4.51-6.15,4.45-9.59-.26-4.33-5.9-6.7-12.81-8.85-19.72A236.67,236.67,0,0,1,185.71,282.93Z"/>
	<path class="cls-2" d="M279.17,280.46c-11.91,27.92-27,51.57-57.79,62.35,9.8-19.14,13.58-38.8,16.77-58.64.26-1.59-.13-3.74,2.62-3.74C253.29,280.51,265.8,280.46,279.17,280.46Z"/>
	<path class="cls-2" d="M194.48,342.42c-15.73-4.51-26.87-13.7-36.42-25-8.25-9.79-14.4-20.88-19.38-32.66-1.22-2.9-1.56-4.44,2.53-4.36,10.77.2,21.55.12,32.32,0,2.78,0,4,.8,4.44,3.77C181,303.88,184.72,323.41,194.48,342.42Z"/>
	<path class="cls-2" d="M90.1,280.44c13,0,24.68.05,36.33,0,3.08,0,3.11,2.46,3.82,4.22,6.22,15.76,14.67,30.15,26.39,42.48,3.86,4.05,8.18,7.67,13,12.14C136,329.08,109.91,310.24,90.1,280.44Z"/>
	<path class="cls-2" d="M325.91,280.46c-19.32,29.27-44.93,48-77.38,57.55a127.79,127.79,0,0,0,30.34-38.45c2.65-5.17,4.9-10.56,7.24-15.88.64-1.46.84-3.2,2.94-3.21C301,280.45,312.93,280.46,325.91,280.46Z"/>
</svg>