<?xml version="1.0" encoding="utf-8"?>
<!-- Generator: Adobe Illustrator 25.0.1, SVG Export Plug-In . SVG Version: 6.00 Build 0)  -->
<svg version="1.1" id="Layer_1" xmlns="http://www.w3.org/2000/svg" xmlns:xlink="http://www.w3.org/1999/xlink" x="0px" y="0px"
	 viewBox="0 0 410 223.8" style="enable-background:new 0 0 410 223.8;" xml:space="preserve">
<style type="text/css">
	.st0{fill:#FFFFFF;}
	.st1{fill:#135DA8;}
	.st2{fill:#FDFDFE;}
</style>
<rect x="-3.5" y="-96.6" class="st0" width="417" height="417"/>
<ellipse class="st1" cx="205" cy="111.9" rx="205" ry="111.9"/>
<path class="st2" d="M296.2,164.8v1.7c0,14.5,0,29,0,43.4c0,1.3-0.4,1.7-1.6,2c-6.5,1.6-13,3-19.6,4.3c-1.2,0.2-1.4-0.1-1.4-1.2
	c0-13.1,0-26.2,0-39.3v-0.9c-0.6,0.3-0.7,0.8-0.9,1.3c-3.9,7.3-9.1,13.4-16.5,17.3c-11.2,6-25,3.8-34.5-5.6
	c-1.6-1.5-3.1-3.1-4.4-4.9c-0.5,0.3-0.3,0.8-0.3,1.2c0,3.8,0,7.5,0,11.3c0,1.1-0.3,1.3-1.4,1.3c-6.5,0-13.1-0.1-19.6,0
	c-1.3,0-1.5-0.5-1.4-1.6c0-8.4,0-16.7,0-25.1v-2c-8.4,17.8-21.3,28.8-41.2,28.6s-32.6-11.6-40.6-29.5v1.8c0,8.8,0,17.6,0,26.4
	c0,1.2-0.3,1.5-1.5,1.5c-6.5-0.1-13-0.1-19.5,0c-1.1,0-1.4-0.3-1.4-1.4c0.1-3.2,0-6.3,0-9.5c0-0.5,0.2-1-0.3-1.6
	c-1.6,1.8-3.2,3.4-5,5c-3.8,3.3-8.3,5.6-13.2,6.8c-0.7,0.2-1.5,0.2-2.2-0.1c-12.4-5.7-24-12.9-34.5-21.6c-0.7-0.5-1.2-1.2-1.5-2
	c-7.2-19.6-6-38.4,6.2-55.8c4.6-6.9,11.7-11.7,19.8-13.4c8.8-1.8,16.7,0.3,23.8,5.6c2.5,1.9,4.7,4,6.7,6.4c0.3-0.6,0.4-1.3,0.3-1.9
	c0-21.9,0-43.8,0-65.6c-0.2-1.2,0.6-2.3,1.8-2.5c6.8-2.3,13.5-4.4,20.6-6.2v93.4c8-17.9,20.6-29.3,40.5-29.6s32.9,10.8,41.3,28.5
	V129c0-24.3,0-48.6,0-72.9c0-1.4,0.3-1.9,1.8-1.9c6.2,0.1,12.4,0.1,18.7,0c1.7,0,2,0.6,2,2.1c-0.1,19.3-0.1,38.7,0,58.1v2.1
	c1.8-1.8,3.1-3.6,4.7-5.1c13.3-12.6,32.1-11.9,44.8,2.6c1.4,1.6,2.7,3.2,3.8,5c1.1,1.8,2.1,3.6,3.4,5.7v-1.9c0-22.2,0-44.4,0-66.6
	c0-1.4,0.3-1.9,1.8-1.9c6.3,0.1,12.5,0.1,18.8,0c1.5,0,2,0.3,2,1.9c-0.1,25.6-0.1,51.2,0,76.8v1.7h0.2c0.7-1.9,1.3-3.8,2.1-5.7
	c4.5-10.6,11.5-19.2,22.4-23.6c13.8-5.6,26.4-2.9,37.3,6.9c10.4,9.3,15,21.5,15.7,35.3c0.1,2.4-0.1,4.8-0.1,7.2c0,1.5-0.5,2-2,2
	c-18.1-0.1-36.1,0-54.2-0.1c-1.7,0-2,0.5-2,2c-0.2,6.8,2,12.3,7.6,16.3c2.8,2,6.1,3.1,9.5,3c2.5,0,4.9,0.2,7.4-0.5
	c4.3-1.2,8.1-4,10.4-7.9c0.3-0.8,1.1-1.3,2-1.2c5.6,0.1,11.3,0.1,16.9,0c1.2,0,1.5,0.2,1,1.4c-1.8,4.6-4.3,8.9-7.4,12.7
	c-0.9,1.1-1.9,2-3.1,2.8c-6.4,4.1-13.1,7.7-20,10.9c-3,1.4-6.4,1-9.5,0.5c-13.5-1.8-22.8-9.6-29.4-21.1
	C299.2,172.1,297.6,168.5,296.2,164.8z M255.8,149.3c-0.1-8-2.1-15.8-8-22.2c-7.2-7.9-17.6-7.8-24.7,0.2c-5.1,5.7-7.3,12.5-7.7,20
	c-0.5,8.7,1.3,16.8,6.9,23.8c2.8,3.5,6.4,6.1,10.9,6.8c6.8,1,11.9-2,15.9-7.1C253.9,164.6,255.7,157.4,255.8,149.3L255.8,149.3z
	 M52,149.7c0,0.9-0.1,1.8,0,2.7c0.7,7.9,3,15.1,8.8,20.8c6.4,6.2,15.2,6.5,21.9,0.7c1.9-1.6,3.5-3.5,4.8-5.6
	c4.5-7.5,5.7-15.7,4.5-24.3c-1-6.7-3.4-12.8-8.4-17.7c-3.4-3.3-7.3-5.2-12.2-4.9c-6.1,0.3-10.4,3.7-13.7,8.4
	C53.5,135.8,52,142.5,52,149.7L52,149.7z M174,149.3c-0.1-7.5-2-14.9-7.2-21.2c-3.9-4.7-8.8-7.4-15-6.6c-5.2,0.7-9.1,3.6-12.1,7.8
	c-5,6.8-6.6,14.5-6.2,22.8c0.4,7.6,2.7,14.6,8,20.4c4.2,4.5,9.3,6.7,15.5,5.4c4.9-1.1,8.4-4.1,11.2-8.1
	C172.4,163.7,174,156.9,174,149.3L174,149.3z M333.2,141.4h14.1c3.3,0,3.3,0,3.3-3.4c-0.1-9.4-8.8-17.4-18.2-16.8
	c-9.7,0.6-17.1,9-16.5,18.7c0.1,1.1,0.3,1.4,1.4,1.4C322.6,141.4,327.9,141.4,333.2,141.4L333.2,141.4z"/>
<path class="st2" d="M373.3,115.7c-7,0-12.6-5.7-12.6-12.6s5.7-12.6,12.6-12.6c7,0,12.6,5.6,12.6,12.6
	C386,110,380.4,115.6,373.3,115.7C373.4,115.7,373.4,115.7,373.3,115.7z M373.3,112.6c5.2,0.1,9.4-4,9.5-9.1c0-0.1,0-0.3,0-0.4
	c0-5.2-4.3-9.5-9.5-9.5s-9.5,4.3-9.5,9.5c-0.1,5.2,4.1,9.4,9.2,9.4C373.2,112.5,373.2,112.5,373.3,112.6L373.3,112.6z"/>
<path class="st1" d="M255.8,149.3c-0.1,8.1-1.9,15.3-6.7,21.4c-4,5.1-9.2,8.1-15.9,7.1c-4.6-0.7-8.1-3.2-10.9-6.8
	c-5.6-7-7.4-15.1-6.9-23.8c0.4-7.5,2.6-14.3,7.7-20c7.1-8,17.5-8,24.7-0.2C253.7,133.5,255.6,141.3,255.8,149.3z"/>
<path class="st1" d="M52,149.7c0-7.2,1.6-13.9,5.8-19.9c3.3-4.8,7.6-8.1,13.7-8.4c4.8-0.3,8.8,1.6,12.2,4.9c5,4.8,7.4,10.9,8.4,17.7
	c1.2,8.6,0,16.8-4.5,24.3c-1.3,2.1-2.9,4-4.7,5.6c-6.8,5.8-15.5,5.6-21.9-0.7c-5.8-5.7-8.2-12.9-8.8-20.8
	C51.9,151.5,52,150.7,52,149.7z"/>
<path class="st1" d="M174,149.3c-0.1,7.7-1.7,14.4-5.8,20.4c-2.8,4-6.3,7-11.2,8.1c-6.2,1.4-11.3-0.9-15.5-5.4
	c-5.3-5.7-7.6-12.7-8-20.4c-0.5-8.2,1.2-16,6.2-22.8c3-4.1,6.9-7.1,12.1-7.8c6.3-0.8,11.2,1.9,15,6.6
	C172.1,134.3,173.9,141.8,174,149.3z"/>
<path class="st1" d="M333.2,141.4c-5.3,0-10.6,0-15.9,0c-1.1,0-1.4-0.3-1.4-1.4c-0.6-9.7,6.8-18.1,16.5-18.7
	c9.4-0.6,18.2,7.4,18.2,16.8c0,3.4,0,3.4-3.3,3.4L333.2,141.4z"/>
<path class="st1" d="M373.3,112.5c-5.2,0.1-9.4-4.1-9.5-9.2c0-0.1,0-0.2,0-0.3c0-5.2,4.2-9.5,9.5-9.5s9.5,4.2,9.5,9.5l0,0
	c0.1,5.2-4,9.4-9.1,9.5C373.6,112.5,373.5,112.5,373.3,112.5z M375.8,103.3c2.1-1.1,2.8-2.3,2.4-4c-0.4-1.5-1.6-2.3-3.8-2.3
	c-1.5,0-2.9,0-4.3,0c-0.8,0-1,0.3-1,1c0,3.4,0,6.9,0,10.3c0,1.2,0.7,1,1.4,0.9s1.5,0.3,1.4-0.9c-0.1-1,0-1.9,0-2.9s0.4-1.2,1.2-0.8
	c1.4,0.7,2.3,2.1,2.2,3.6c0,0.8,0.3,0.9,1,1c2.2,0.1,2.3,0,1.7-2.2C377.9,105.5,377.1,104.2,375.8,103.3z"/>
<path class="st2" d="M375.8,103.3c1.2,0.9,2,2.2,2.3,3.7c0.6,2.3,0.6,2.3-1.7,2.2c-0.7,0-1-0.2-1-1c0-1.5-0.8-3-2.2-3.6
	c-0.8-0.4-1.3-0.3-1.2,0.8s0,1.9,0,2.9c0.1,1.2-0.8,0.9-1.4,0.9s-1.4,0.2-1.4-0.9c0-3.4,0-6.9,0-10.3c0-0.8,0.2-1.1,1-1
	c1.5,0.1,2.9,0,4.3,0c2.1,0,3.4,0.8,3.8,2.3C378.6,101,378,102.2,375.8,103.3z M373.1,101.9c1.1,0,2.2,0.2,2.2-1s-1.2-1.1-2.1-1.2
	c-0.8,0-1.4-0.2-1.5,1.1S372.5,101.9,373.1,101.9z"/>
<path class="st1" d="M373.1,101.9c-0.6,0-1.3,0.2-1.3-1.1s0.7-1.1,1.5-1.1c0.9,0,2.1-0.1,2.1,1.2S374.2,101.8,373.1,101.9z"/>
</svg>
