<?xml version="1.0" encoding="utf-8"?>
<!-- Generator: Adobe Illustrator 22.0.0, SVG Export Plug-In . SVG Version: 6.00 Build 0)  -->
<svg version="1.1" id="Layer_1" xmlns="http://www.w3.org/2000/svg" xmlns:xlink="http://www.w3.org/1999/xlink" x="0px" y="0px"
	 viewBox="0 0 410 241.6" style="enable-background:new 0 0 410 241.6;" xml:space="preserve">
<style type="text/css">
	.st0{fill:#FFFFFF;}
	.st1{fill:#D1283A;}
</style>
<rect x="-3" y="-87.7" class="st0" width="417" height="417"/>
<title>logo_small</title>
<path class="st1" d="M117,38.9c1.3-3.9-2-6.2-3.4-9.1c-4.2-8.6-4.4-8.5-12.8-4C89.9,31.7,79,37.7,68,43.4c-3.9,2-4.6,4.3-2.4,8
	c2.6,4.5,4.7,9.3,7.4,13.7c1.9,3,1.6,4.7-1.2,7.1c-11.4,10-21,21.6-27.7,35.4c-13.8,28-9.5,57.1,12.8,79
	c9.9,9.7,19.7,20.1,33.4,24.4c22.2,6.9,44.6,13.5,68.1,14.3c3.7,0,7.3,0.8,10.6,2.3c5,2.4,10.8,3.1,15.7,1c11-4.9,22.9-4.3,34.3-6.4
	c41.9-7.4,80.8-21.7,114.1-49c12.1-9.7,22.3-21.5,30-34.9c16.9-30,12.8-60.8-11.9-84.8c-3.5-3.5-3.8-5.5-0.9-9.3
	c5-6.5,4.6-6.5,11.4-1.7c13.9,9.8,26,21.2,35.4,35.5c17.2,25.9,17.1,58.7,0.2,85c-11.7,18.1-27.6,31.5-45.7,42.4
	c-29.6,17.8-62,27.4-95.9,32.8c-23.8,3.8-47.7,4-71.7,3.1c-23.8-0.9-47-5.4-70-11.5c-13.5-3.5-24.5-11.7-37-17
	c-5.2-2.2-10.2-4.7-15.5-6.7c-17.3-6.5-30.2-18.4-41.7-32.3C12.4,165,6.7,154.8,3,143.9c-3.9-11.8-3.7-23.7-1.2-35.7
	c4.5-21.6,16.5-38.9,32.5-53.5C52.8,38,74.5,26.4,97.9,17.9c23-8.2,46.9-13.6,71.2-16c18.5-2,37.1-2.4,55.7-1.1
	c29.4,2.1,58.1,7.6,85.7,18c5.9,2.2,11.6,4.8,17.3,7.4c1.1,0.5,4.7,0.7,2.2,3.4c-1.7,1.9-1.5,7-6.5,4.5c-11-5.4-22.5-9.6-34.5-12.3
	c-56.2-12.7-110.5-5.5-163.2,16.5C122.7,39.5,120,40.8,117,38.9L117,38.9z"/>
<path class="st1" d="M117,38.9c-0.6,2.1,1.1,3.3,2,4.8c25.5,42.3,51.1,84.6,76.7,126.8c4.1,6.7,9.1,7.2,14.4,1.2
	c25.6-29,51.2-58.1,76.8-87.2c14.8-16.9,29.6-33.8,44.3-50.7c4.3-5,8.7-10,12.9-15c1.9-2.3,3.5-2.5,5.8-0.4c2.5,2.4,5.5,4.3,8.2,6.5
	s1.7,4.1-0.3,6.3c-18.5,21.4-37,42.9-55.5,64.4c-35.2,40.7-70.3,81.4-105.5,122.1c-13.2,15.3-29.7,9.9-37-3.6
	c-29.2-53.9-59.1-107.3-88.8-161c-3.2-5.7-3.2-5.7,2.9-8.7c10-5.1,20-10.1,30-15.3c3.6-1.9,6-1.9,8,2.4c1.2,2.7,2.2,5.9,5.2,7.4
	L117,38.9z"/>
</svg>
