<?xml version="1.0" encoding="utf-8"?>
<!-- Generator: Adobe Illustrator 25.0.1, SVG Export Plug-In . SVG Version: 6.00 Build 0)  -->
<svg version="1.1" id="Layer_1" xmlns="http://www.w3.org/2000/svg" xmlns:xlink="http://www.w3.org/1999/xlink" x="0px" y="0px"
	 viewBox="0 0 410 225.6" style="enable-background:new 0 0 410 225.6;" xml:space="preserve">
<style type="text/css">
	.st0{fill:#E12738;}
</style>
<path d="M159.5,0.1c21.9,0,43.7,0.2,65.6,0c27.5-0.3,49.4,11,67.1,31.3c14.2,16.3,22.5,35.5,26.3,56.7c0.6,3.1,1.7,3.9,4.7,3.9
	c26.9-0.1,53.7-0.1,80.5,0c7.4,0,6.1-0.8,6.2,6.4c0.1,9.7,0,19.4,0,29.1c0,5,0,5-4.9,5c-27,0-54,0.1-80.9-0.1
	c-3.7,0-4.9,1.1-5.6,4.7c-5.9,31-20,57-46.6,75c-13,8.9-28.4,13.5-44.1,13.5c-47.3,0.1-94.6,0-141.9,0.1c-3.2,0-4.2-1-4.1-4.1
	c0.2-7.8-0.1-15.6,0.1-23.4c0.1-3.4-1-4.4-4.4-4.3c-23.9,0.1-47.8,0.1-71.7,0c-6.9,0-5.8,0.6-5.8-6c-0.1-8.6,0-17.1,0-25.7
	c0-5,0-5,4.9-5h71.7c5.2,0,5.2,0,5.2-5.2c0-25.5-0.1-50.9,0.1-76.3c0-3.6-0.9-4.8-4.7-4.8C52.9,71,28.5,70.8,4.1,71
	C0.9,71,0,70.2,0,66.9c0.2-9.6,0.2-19.2,0-28.8C-0.1,35,0.9,34,4,34c24.3,0.1,48.6,0.1,72.9,0.1c5,0,5,0,5-5
	c0-8.2,0.2-16.4-0.1-24.5C81.7,1.1,82.6,0,86.2,0C110.7,0.2,135.1,0.1,159.5,0.1z M118.2,112.8c0,24.3,0.1,48.6-0.1,72.9
	c0,3.3,0.7,4.2,4.2,4.2c32-0.2,63.9-0.1,95.9-0.1c16.8,0,31.2-6.1,43.1-17.8c28.9-28.2,32.3-77.4,7.6-109.9
	c-12.3-16.2-28.4-26.1-49.2-26.3c-32.6-0.3-65.2,0-97.8-0.2c-3,0-3.8,0.9-3.8,3.9C118.2,64,118.2,88.4,118.2,112.8z"/>
<path class="st0" d="M118.2,112.8c0-24.4,0-48.8-0.1-73.2c0-3,0.8-3.9,3.8-3.9c32.6,0.1,65.2-0.2,97.8,0.2
	c20.7,0.2,36.9,10.1,49.2,26.3c24.6,32.5,21.2,81.7-7.6,109.9c-11.9,11.6-26.3,17.8-43.1,17.8c-32,0-63.9-0.1-95.9,0.1
	c-3.5,0-4.2-1-4.2-4.2C118.2,161.4,118.2,137.1,118.2,112.8z"/>
</svg>
